HIERARCHY
ROOT hips
{
  OFFSET 0 9.313263304106702 1.2146308026317778
  CHANNELS 6 Xposition Yposition Zposition Yrotation Xrotation Zrotation
  JOINT spine
  {
    OFFSET -6.402521e-31 0.5173342420023708 0
    CHANNELS 3 Yrotation Xrotation Zrotation
    JOINT chest
    {
      OFFSET 0 1.130544299341115 0
      CHANNELS 3 Yrotation Xrotation Zrotation
      JOINT upperChest
      {
        OFFSET 0 1.0863555061129995 0
        CHANNELS 3 Yrotation Xrotation Zrotation
        JOINT neck
        {
          OFFSET 0 1.3773706506454462 0
          CHANNELS 3 Yrotation Xrotation Zrotation
          JOINT head
          {
            OFFSET 0 0.7374408940073979 0
            CHANNELS 3 Yrotation Xrotation Zrotation
            JOINT leftEye
            {
              OFFSET 0.25066580148932727 0.6408406698778757 0.15963719178883284
              CHANNELS 3 Yrotation Xrotation Zrotation
              End Site
              {
                OFFSET 0.25066580148932727 0.6408406698778757 0.15963719178883284
              }
            }
            JOINT rightEye
            {
              OFFSET -0.25066576739704244 0.6408406384191823 0.15963727561643756
              CHANNELS 3 Yrotation Xrotation Zrotation
              End Site
              {
                OFFSET -0.25066576739704244 0.6408406384191823 0.15963727561643756
              }
            }
          }
        }
        JOINT leftShoulder
        {
          OFFSET 0.3761817444281191 1.0539491987447769 0
          CHANNELS 3 Yrotation Xrotation Zrotation
          JOINT leftUpperArm
          {
            OFFSET 0.8702844380000002 0 0
            CHANNELS 3 Yrotation Xrotation Zrotation
            JOINT leftLowerArm
            {
              OFFSET 2.198527310000323 0 0
              CHANNELS 3 Yrotation Xrotation Zrotation
              JOINT leftHand
              {
                OFFSET 2.146852313968281 0 0
                CHANNELS 3 Yrotation Xrotation Zrotation
                JOINT leftIndexProximal
                {
                  OFFSET 0.6585177834681599 0.07380250427007962 0.18382213159631788
                  CHANNELS 3 Yrotation Xrotation Zrotation
                  JOINT leftIndexIntermediate
                  {
                    OFFSET 0.3323021288626682 -0.009606893929485771 -0.012820872253340998
                    CHANNELS 3 Yrotation Xrotation Zrotation
                    JOINT leftIndexDistal
                    {
                      OFFSET 0.2045908926985518 -0.0071133989147997845 -0.006828784783599051
                      CHANNELS 3 Yrotation Xrotation Zrotation
                      End Site
                      {
                        OFFSET 0.2045908926985518 -0.0071133989147997845 -0.006828784783599051
                      }
                    }
                  }
                }
                JOINT leftLittleProximal
                {
                  OFFSET 0.6110054258835662 0.07380246363125398 -0.29175655876064077
                  CHANNELS 3 Yrotation Xrotation Zrotation
                  JOINT leftLittleIntermediate
                  {
                    OFFSET 0.3144281999999998 -2.5124724523095665e-9 1.8658118799974588e-7
                    CHANNELS 3 Yrotation Xrotation Zrotation
                    JOINT leftLittleDistal
                    {
                      OFFSET 0.18116185580251631 0.002815456192251098 0.0034826415518049436
                      CHANNELS 3 Yrotation Xrotation Zrotation
                      End Site
                      {
                        OFFSET 0.18116185580251631 0.002815456192251098 0.0034826415518049436
                      }
                    }
                  }
                }
                JOINT leftMiddleProximal
                {
                  OFFSET 0.6637478005691111 0.07380246480054087 0.02046981859247815
                  CHANNELS 3 Yrotation Xrotation Zrotation
                  JOINT leftMiddleIntermediate
                  {
                    OFFSET 0.3705733999999994 -2.9611069152224445e-9 9.35054791928458e-8
                    CHANNELS 3 Yrotation Xrotation Zrotation
                    JOINT leftMiddleDistal
                    {
                      OFFSET 0.22861063500000056 -1.82673876025774e-9 -1.6740782024515788e-7
                      CHANNELS 3 Yrotation Xrotation Zrotation
                      End Site
                      {
                        OFFSET 0.22861063500000056 -1.82673876025774e-9 -1.6740782024515788e-7
                      }
                    }
                  }
                }
                JOINT leftRingProximal
                {
                  OFFSET 0.6561845547265777 0.07380246406440083 -0.13588087571513918
                  CHANNELS 3 Yrotation Xrotation Zrotation
                  JOINT leftRingIntermediate
                  {
                    OFFSET 0.3437531000000005 -2.746796123886952e-9 1.4935781944558357e-7
                    CHANNELS 3 Yrotation Xrotation Zrotation
                    JOINT leftRingDistal
                    {
                      OFFSET 0.1983118991198174 -0.002467117924596085 -0.004538141969590015
                      CHANNELS 3 Yrotation Xrotation Zrotation
                      End Site
                      {
                        OFFSET 0.1983118991198174 -0.002467117924596085 -0.004538141969590015
                      }
                    }
                  }
                }
                JOINT leftThumbProximal
                {
                  OFFSET 0.09767004258864787 -0.14930060425447422 -0.07008212897521154
                  CHANNELS 3 Yrotation Xrotation Zrotation
                  JOINT leftThumbIntermediate
                  {
                    OFFSET 0.36682123028154767 -0.015768465060082004 0.28693641268151077
                    CHANNELS 3 Yrotation Xrotation Zrotation
                    JOINT leftThumbDistal
                    {
                      OFFSET 0.21091084272403915 -0.016756648201192714 0.1933767059105508
                      CHANNELS 3 Yrotation Xrotation Zrotation
                      End Site
                      {
                        OFFSET 0.21091084272403915 -0.016756648201192714 0.1933767059105508
                      }
                    }
                  }
                }
              }
            }
          }
        }
        JOINT rightShoulder
        {
          OFFSET -0.37618174442811925 1.0539491987447769 0
          CHANNELS 3 Yrotation Xrotation Zrotation
          JOINT rightUpperArm
          {
            OFFSET -0.870284438 0 0
            CHANNELS 3 Yrotation Xrotation Zrotation
            JOINT rightLowerArm
            {
              OFFSET -2.1985273100003235 0 0
              CHANNELS 3 Yrotation Xrotation Zrotation
              JOINT rightHand
              {
                OFFSET -2.1468523139682802 0 0
                CHANNELS 3 Yrotation Xrotation Zrotation
                JOINT rightIndexProximal
                {
                  OFFSET -0.6585177834681599 0.07380250427007962 0.18382213159631788
                  CHANNELS 3 Yrotation Xrotation Zrotation
                  JOINT rightIndexIntermediate
                  {
                    OFFSET -0.3323021288626682 -0.009606893929485771 -0.012820872253340998
                    CHANNELS 3 Yrotation Xrotation Zrotation
                    JOINT rightIndexDistal
                    {
                      OFFSET -0.2045908926985518 -0.0071133989147997845 -0.006828784783599051
                      CHANNELS 3 Yrotation Xrotation Zrotation
                      End Site
                      {
                        OFFSET -0.2045908926985518 -0.0071133989147997845 -0.006828784783599051
                      }
                    }
                  }
                }
                JOINT rightLittleProximal
                {
                  OFFSET -0.6110054258835662 0.07380246363125398 -0.29175655876064077
                  CHANNELS 3 Yrotation Xrotation Zrotation
                  JOINT rightLittleIntermediate
                  {
                    OFFSET -0.3144281999999998 -2.5124724523095665e-9 1.8658118799974588e-7
                    CHANNELS 3 Yrotation Xrotation Zrotation
                    JOINT rightLittleDistal
                    {
                      OFFSET -0.18116185580251631 0.002815456192251098 0.0034826415518049436
                      CHANNELS 3 Yrotation Xrotation Zrotation
                      End Site
                      {
                        OFFSET -0.18116185580251631 0.002815456192251098 0.0034826415518049436
                      }
                    }
                  }
                }
                JOINT rightMiddleProximal
                {
                  OFFSET -0.6637478005691111 0.07380246480054087 0.02046981859247815
                  CHANNELS 3 Yrotation Xrotation Zrotation
                  JOINT rightMiddleIntermediate
                  {
                    OFFSET -0.3705733999999994 -2.9611069152224445e-9 9.35054791928458e-8
                    CHANNELS 3 Yrotation Xrotation Zrotation
                    JOINT rightMiddleDistal
                    {
                      OFFSET -0.22861063500000056 -1.82673876025774e-9 -1.6740782024515788e-7
                      CHANNELS 3 Yrotation Xrotation Zrotation
                      End Site
                      {
                        OFFSET -0.22861063500000056 -1.82673876025774e-9 -1.6740782024515788e-7
                      }
                    }
                  }
                }
                JOINT rightRingProximal
                {
                  OFFSET -0.6561845547265777 0.07380246406440083 -0.13588087571513918
                  CHANNELS 3 Yrotation Xrotation Zrotation
                  JOINT rightRingIntermediate
                  {
                    OFFSET -0.3437531000000005 -2.746796123886952e-9 1.4935781944558357e-7
                    CHANNELS 3 Yrotation Xrotation Zrotation
                    JOINT rightRingDistal
                    {
                      OFFSET -0.1983118991198174 -0.002467117924596085 -0.004538141969590015
                      CHANNELS 3 Yrotation Xrotation Zrotation
                      End Site
                      {
                        OFFSET -0.1983118991198174 -0.002467117924596085 -0.004538141969590015
                      }
                    }
                  }
                }
                JOINT rightThumbProximal
                {
                  OFFSET -0.09767004258864787 -0.14930060425447422 -0.07008212897521154
                  CHANNELS 3 Yrotation Xrotation Zrotation
                  JOINT rightThumbIntermediate
                  {
                    OFFSET -0.36682123028154767 -0.015768465060082004 0.28693641268151077
                    CHANNELS 3 Yrotation Xrotation Zrotation
                    JOINT rightThumbDistal
                    {
                      OFFSET -0.21091084272403915 -0.016756648201192714 0.1933767059105508
                      CHANNELS 3 Yrotation Xrotation Zrotation
                      End Site
                      {
                        OFFSET -0.21091084272403915 -0.016756648201192714 0.1933767059105508
                      }
                    }
                  }
                }
              }
            }
          }
        }
      }
    }
  }
  JOINT leftUpperLeg
  {
    OFFSET 0.7715603 -0.3993844658041501 0
    CHANNELS 3 Yrotation Xrotation Zrotation
    JOINT leftLowerLeg
    {
      OFFSET 0 -3.529830000249343 0
      CHANNELS 3 Yrotation Xrotation Zrotation
      JOINT leftFoot
      {
        OFFSET 0 -4.154939295409685 0.004208579085223096
        CHANNELS 3 Yrotation Xrotation Zrotation
        JOINT leftToes
        {
          OFFSET 0 -0.6353414391261847 1.10414981190622
          CHANNELS 3 Yrotation Xrotation Zrotation
          End Site
          {
            OFFSET 0 -0.6015820691747853 1.10414981190622
          }
        }
      }
    }
  }
  JOINT rightUpperLeg
  {
    OFFSET -0.7715603 -0.3993844658041501 0
    CHANNELS 3 Yrotation Xrotation Zrotation
    JOINT rightLowerLeg
    {
      OFFSET 0 -3.529830000249343 0
      CHANNELS 3 Yrotation Xrotation Zrotation
      JOINT rightFoot
      {
        OFFSET 0 -4.154939295409685 0.004208579085223096
        CHANNELS 3 Yrotation Xrotation Zrotation
        JOINT rightToes
        {
          OFFSET 0 -0.6353414391261847 1.10414981190622
          CHANNELS 3 Yrotation Xrotation Zrotation
          End Site
          {
            OFFSET 0 -0.6015820691747853 1.10414981190622
          }
        }
      }
    }
  }
}
MOTION
Frames: 4
Frame Time: 0.03333333333333333
0.03614400936798616 8.207260478626598 1.404595208146755 12.031520815426454 9.883480984882118 -0.7021103572689957 -8.13101358697677 5.748490189698761 1.3038069138064687 -4.488961160259543 0.2973178680833016 1.5397048227461663 0 0 0 -1.5598593437248511 -6.186309175614075 -2.651249577220677 -10.822146757215425 -5.958875008597691 1.1783116668494733 0 0 0 0 0 0 -1.9018323290562276 0.6091581085223361 -11.24567402822653 -35.531996310443276 -6.714405164382804 -55.40568819414923 -52.07493419719112 -0.000058967813554253384 0.0000067963716806399025 -32.29158313315125 9.046255064523475 -3.2510210849538814 -2.9761873340190714 0.3320282128387687 -1.4733609116060977 3.020143011879783 0.8330162193468031 -30.81458272489465 3.001630945296681 0.8291128358746567 -30.814688889299404 16.434603802051566 2.2433017897331893 -22.029616902253192 2.4971972873331185 0.6695856758017693 -25.64301086702262 2.514362436164489 0.6662699806326406 -25.643177993507418 0.19591678586281872 -0.6876249904704462 -14.657782001356736 2.578171541473632 0.5944186010250819 -26.009589372904756 0.9482305498509644 0.07686191603202247 -9.269952207721417 5.743357019342201 0.9290162299844344 -20.320506875059575 2.349956848677287 0.4909723324927553 -23.586233615515837 1.9475568897268365 0.3326393916484854 -19.36825559487896 -0.2787291027026849 5.194859639748291 4.583928469014989 12.764780356701067 6.895174311684476 5.223864682428771 -8.887726052327189 -10.215694247433465 14.299448935073212 -0.10780809059986074 0.6713070013175895 12.337947155941377 10.872953601753636 14.949795458622496 61.70404150369955 20.016460934179513 -0.00000161862325827496 -0.000006185216241488843 1.974780127718688 -0.8177427050833358 -0.7262955894635402 3.1128025311168046 0.38694999331792923 0.6652529058907753 -2.3685264304039553 0.6565463983886684 30.87901887842214 -2.406489361850934 0.6617203422465796 30.878943815874155 -15.589206792715911 1.8986153940122665 21.660566890372298 -1.9429383992757234 0.39390886367126116 25.69824515430545 -2.091220256851279 0.41859103986892904 25.69808060851251 0.1916693703444775 -0.6960911469263936 13.907937966641244 -1.957913729065058 0.45726851675403585 26.06293806637154 -0.792164665783798 0.06100505338785685 9.310850436659639 -5.18364299189674 0.7982635765101412 19.69638251764524 -1.8963828263663507 0.3946394977679917 23.633830458559792 -1.5622102275299405 0.27178249054536163 19.39760395045179 2.0976396196619023 4.261103553181697 -3.894416763897569 -14.525893461533553 7.175734227500583 -6.218306418025619 2.9640739921940034 -8.430118313554148 -15.062074143235048 4.3037195663106695 0.3517272027064434 -5.560433450011147 4.625073865211425 25.17233693564558 2.072762474851139 -0.9017928100084263 -23.901897920531272 3.5005010463874484 0.00000908827884397163 -13.813156545346057 -0.000005659409856950464 -3.7057127325054564 -47.10998230749594 1.239408464273407 -11.50865449046637 30.948793214233195 -4.78028429127506 -14.566590663373074 5.1707486794298045 0.5069695280912527 -0.000006600744260625193 -0.00000930813214768182 -0.0000030936912395578748
-0.024648706682703712 8.13671285455877 1.5692017928907749 15.374158149731223 9.379995447921036 -0.6486736007430506 -6.910165380560253 5.611707827878835 1.1195631484615804 -3.7858719717664977 0.09070957912509756 1.4557791121930876 0 0 0 -1.6478791203992234 -6.113244517376034 -2.487948908313259 -11.024874324878578 -5.71394329226833 0.9347063168601168 0 0 0 0 0 0 -1.8653515735088129 0.6106636102013009 -11.239238462188869 -31.72520177995196 -6.844673443109776 -53.99845528751799 -57.58219972091765 -0.00007871958859178817 0.000024674514015299872 -27.548583563138312 10.163276538066162 -6.457883289517781 -2.8965179255596833 0.3301569498866148 -1.3884215463677132 2.9813944604257685 0.8100367271849216 -30.375557710807353 2.9653990720078176 0.8077195146777661 -30.40462166839841 16.25945735960246 2.1697642419400536 -21.77218957762325 2.4631159485679586 0.6518381701645253 -25.268607991857188 2.481269998979106 0.6490823314105464 -25.279903513884648 0.22216029768407441 -0.6644231970786888 -14.409968941083486 2.5398122836113317 0.5758724428781898 -25.59432400884617 0.935769999024647 0.07483586270330642 -9.146583563673092 5.703955640934408 0.9073462730700168 -20.051278678930434 2.313871576111098 0.4753749341519932 -23.20289216778011 1.9231037656688674 0.3240929504068713 -19.115690022992187 0.12032627229379395 4.925133355600963 4.310906440212668 12.601793179439976 6.887360474360943 5.660620180125406 -9.491558157989433 -9.950552429019918 14.691608717058962 -0.33967200639645145 0.6440014677616315 11.75593768352979 11.31764723426319 14.645825723005212 64.18761470262133 16.389852741166063 -0.000003701118559733523 -9.071857951282211e-7 5.232315505444162 -4.84508817034855 0.9969416588417539 3.0554240878742447 0.3945035577717964 0.4566985542863436 -2.334187006504231 0.636311582164413 30.390178886819434 -2.3720814389469305 0.6413477189672804 30.388497225954307 -15.44204872252542 1.801587215608002 21.29332426686582 -1.9106947349880892 0.37984857202025424 25.266979890347454 -2.0591719745017727 0.40416063928401025 25.26684784021281 0.18238214944973596 -0.6700285477819021 13.545121228517123 -1.9237553273262151 0.4411029365047194 25.599438631771218 -0.7705085754538771 0.057509275323130646 9.041643312738659 -5.14326541794876 0.77449201230587 19.333327728054062 -1.8653126881805444 0.3810972701897375 23.218215995402737 -1.5353370342901684 0.2622921330931651 19.04787182904903 1.6532357208239357 3.151036852578394 -3.572658775911423 -14.170860114159735 7.273919556122159 -6.455315181598224 3.0460772047415183 -8.298884679974881 -15.044597507289257 3.921583130226638 -1.3757899333992123 -3.380166445395517 1.7144800100776107 31.64942868280847 0.9318195801337152 -0.8911840837628879 -22.167404641028075 3.1133649543245094 0.000005632606451789112 -20.347429670115208 -0.000007426908938276074 -12.591635224715883 -47.957287533479125 5.4774696545313795 -4.651139628674322 37.267755473048624 -1.6928609143049709 -17.738028832975246 0.5395778189180716 0.6080574521314247 0.000008264998832308082 -0.0559880500425082 -7.295242769293197e-7
-0.10299679907885465 8.146921504627574 1.7820378688035974 19.692449041901025 8.692737279709666 -1.6307972408511726 -5.502030182830574 5.4918546338885195 1.189289054013065 -3.005948571481921 -0.23037036160581642 1.4738634220795184 0 0 0 -1.7579281249206047 -5.863045070214923 -2.209565475434829 -11.437997174390002 -4.434108113648641 0.8915500283425553 0 0 0 0 0 0 -1.9423105299692847 0.5943846083325688 -10.312865332010102 -27.96752952456629 -6.953348289240316 -52.307377095700666 -67.28168202936283 -0.00006172684062178647 0.000047324083975539246 -24.90021895054762 9.237451370825362 -9.154925846655127 -2.670760721734295 0.3136208809335262 -1.161236420402161 2.872198775935258 0.7474336455067585 -29.148876934878764 2.8634677916929276 0.749277260146692 -29.259515519709915 15.765003669629595 1.9711592182978896 -21.055207506572618 2.36737253192225 0.6034917758041576 -24.223719708502276 2.3883754522759917 0.6022639279689274 -24.266290627503583 0.2982318747168216 -0.6014430860439738 -13.723978929783376 2.4321779078347734 0.5256823725497078 -24.436263669230268 0.9016479441772722 0.06944923374448726 -8.809765245792388 5.593375089085984 0.8483688288960136 -19.30446027267417 2.2127580217601386 0.4331134904260831 -22.134370666880724 1.855079626473706 0.3009526454772227 -18.415080750298213 1.2573298390054406 4.16995652711899 3.543913064889304 12.14648855431546 6.8833379377121835 6.88686368942324 -11.16471485691625 -9.181100823922662 15.773074549069838 -0.10266356257740464 0.6226420545380283 11.40118483780893 8.989246402299823 17.51773615792649 64.54280075298365 15.568511060854384 0.000005339241620649479 0.0000060123186427829935 7.0122051970582495 -9.589191888965894 4.903872673678775 2.892264055074989 0.4121856481919494 -0.10969092845565785 -2.2373165976007847 0.5813410885718576 29.024108877318184 -2.2750042134714423 0.5859778002947343 29.017849116301047 -15.021482047435141 1.5402826134225729 20.272596444647775 -1.8201952980810714 0.34190729184072466 24.063783711417276 -1.969160273177647 0.3651237336635914 24.063685828132613 0.15264280525493024 -0.5990602864804818 12.541561748250018 -1.8279495974878015 0.3975097399032766 24.308110809915526 -0.7108558516668123 0.04845442162460287 8.301071281564987 -5.029431558802821 0.7100939289635868 18.32694028790659 -1.778392319664848 0.3446776502866038 22.06178858166811 -1.4605352165968861 0.23682601124606456 18.07808121179224 0.39559232824689533 0.029561823766609322 -2.6062807390580556 -13.184641032858645 7.5508701531066205 -7.1259615268133905 3.2694835009097134 -7.927903820984015 -14.998738250048758 3.0770083524031344 -3.620754648473596 0.7341859119383456 -2.7979365544763177 37.149960661528645 -1.7212045198419414 -1.1511790408801743 -15.952893070295747 3.0569325465246986 0.000013415391361708573 -27.788941979374595 -0.000012327925251277785 -20.5536484751689 -45.5379498667137 9.423680070990022 1.0941946087264638 39.67256284708465 1.9943411324194549 -21.071452275885363 -3.1385518888177906 0.4234502989422041 0.00005188831328194097 0.14955155062259842 -0.06861165404141152
-0.19457459449768066 8.309979872270063 2.039217389150499 24.816097708891956 7.2178948895066535 -2.657788652945886 -4.960270489316752 5.28610775860522 1.1403930105768256 -2.713045400749219 -0.6584653810130913 1.4819468921164356 0 0 0 -1.7720523747369916 -5.382792480437334 -1.9572508558457233 -11.705423577217504 -2.429623821125442 0.9489955397249287 0 0 0 0 0 0 -1.9504234755275285 0.5731501021127049 -8.812752564615122 -25.580878066598025 -8.356143969466748 -49.94737375319366 -78.25173262360275 -0.00006553573856167978 0.00006515494321740012 -23.386608873549157 10.321449494558784 -12.288933088117274 -2.319458386186413 0.2878390694266496 -0.833193364860377 2.702463434599786 0.6561333582872618 -27.270144327756196 2.7052758821978626 0.6638211928568295 -27.50686950052415 14.997498667022004 1.682659397652142 -19.959588080155488 2.2193316098499793 0.5329526187571819 -22.625730758217752 2.244775506426204 0.5338907965700627 -22.716652185798313 0.4207166400284036 -0.510214883852031 -12.685717414605504 2.2658032865891546 0.4532230494370145 -22.667012861285837 0.8509670485351202 0.06181587868337752 -8.309464252042464 5.4224952021003645 0.7623774755389972 -18.17124559022505 2.0569034112784155 0.3722987825144691 -20.502847939098015 1.7513634063879884 0.2674783298101824 -17.352049477015658 3.0580280843373755 3.015426682673829 2.3639862593603453 11.46944658267185 6.927032126808901 8.780406944729355 -13.683546810164126 -7.933391428582749 17.38640470725337 -0.5799755276713013 0.61311979024259 11.126436198406934 5.623595269718308 21.74680422854157 63.9002040684876 14.040329383542447 -0.000006479613268137135 0.00002009015918630138 7.797934039426585 -20.896521829587282 7.390843421461369 2.6367731161139245 0.43063913074646326 -0.9449643274514777 -2.0864607113949982 0.5016497061477573 26.931322405906766 -2.123813837372356 0.505713558926708 26.918078855784476 -14.354218271308381 1.1681279002063552 18.719519198746593 -1.6803879301040743 0.2876285048459816 22.224473464808455 -1.8300725276798187 0.3091550452016543 22.224423560906004 0.09807150490563965 -0.4956820825875817 11.02443965179178 -1.67995413529283 0.33519528650549807 22.338014375621885 -0.6211321837335617 0.03633415088545943 7.189661347922427 -4.85208113080462 0.6171529292208886 16.80148186774299 -1.6445973120254682 0.29261348627034683 20.300195237783882 -1.3462728758446574 0.20057457089469163 16.607166029539524 -1.587338027977923 -4.777563903153586 -0.9330666387326311 -11.691215003179106 7.978846742786399 -8.170562817868396 3.6008951331597245 -7.3513651977742756 -14.93419511185474 2.4388943902058005 -1.4876730701144671 4.833432699804566 -5.711429838402802 34.29140896528011 -2.8973661770742205 -1.5445140254187038 -7.035703195140442 2.3560342380635118 0.009723909865020551 -32.89160492851045 -0.6552397779241402 -23.220769449612103 -38.97504798123192 10.123289067072593 0.8636628643697986 36.07057296917605 1.962549972966441 -23.138291382569978 -4.362099249641686 0.501782629443609 0.00012504339707450118 0.19768831829073683 -0.11238107082373573
